<?xml version="1.0" encoding="UTF-8"?>
<svg id="logo" xmlns="http://www.w3.org/2000/svg" version="1.1" viewBox="0 0 935.43 510.24">
  <!-- Generator: Adobe Illustrator 30.2.1, SVG Export Plug-In . SVG Version: 2.1.1 Build 1)  -->
  <defs>
    <style>
      .st0 {
        fill: #d51c17;
      }

      .st1 {
        fill: #fff;
      }

      .st2 {
        fill: none;
      }
    </style>
  </defs>
  <rect class="st2" x="0" y="0" width="935.43" height="510.24"/>
  <g>
    <g>
      <path class="st1" d="M217.46,368.5l-35.42-79.68-1.74-3.93h-18.27l-1.74,3.93-35.42,79.68-4.4,9.92h23.24l1.71-4.08,5.87-14.19h39.74l5.87,14.16,1.71,4.11h23.27l-4.4-9.92ZM158.77,339.52l.93-2.12,10.09-23.23,1.38-3.15,1.38,3.15,10.09,23.23.93,2.12h-24.79Z"/>
      <path class="st1" d="M692.02,368.49l-35.42-79.68-1.74-3.93h-18.27l-1.74,3.93-35.42,79.68-4.4,9.92h23.24l1.71-4.08,5.87-14.19h39.74l5.87,14.16,1.71,4.11h23.27l-4.4-9.92ZM633.33,339.51l.93-2.12,10.09-23.23,1.38-3.15,1.38,3.15,10.09,23.23.93,2.12h-24.79Z"/>
      <rect class="st1" x="233.93" y="284.88" width="20.45" height="93.54"/>
      <path class="st1" d="M354.04,368.75l-10.27-25.74c1.77-.85,3.35-1.81,4.7-2.99,3.2-2.81,5.39-6.47,6.53-10.89.87-3.54,1.35-7.77,1.35-12.49v-2.09c0-5.08-.39-9.26-1.2-12.77-.96-4.42-2.96-7.96-5.9-10.62-2.78-2.54-6.44-4.24-11.26-5.11-4.01-.79-9.07-1.15-15.45-1.15h-47.07v93.53h20.45v-32.22h27.52l11.2,28.04,1.71,4.17h21.59l-3.89-9.68ZM328.92,323.79c-.65.48-1.33.79-2.13.97-2.1.45-4.18.48-5.94.48h-24.94v-19.42h22.9c2.13,0,4.27.12,6.71.36,2.35.21,4.27,1.75,6.03,3.39,1.24,1.15,2.97,2.93,3.74,5.2.59,1.66-2.1,4.99-2.13,5.02-1.24,1.54-2.66,2.9-4.24,3.99Z"/>
      <polygon class="st1" points="495.33 284.88 495.33 307.03 464.98 307.03 464.98 378.42 444.51 378.42 444.51 307.03 414.17 307.03 414.17 284.88 495.33 284.88"/>
      <polygon class="st1" points="585.97 356.27 585.97 378.42 512.39 378.42 512.39 284.88 584.85 284.88 584.85 307.03 532.84 307.03 532.84 319.74 582.69 319.74 582.69 341.91 532.84 341.91 532.84 356.27 585.97 356.27"/>
      <polygon class="st1" points="814.96 284.88 814.96 378.42 794.51 378.42 794.51 325.99 770.22 369.81 768.35 373.18 754.21 373.18 752.32 369.88 727.06 325.44 727.06 378.42 706.59 378.42 706.59 284.88 727.97 284.88 729.85 288.21 761.01 343.41 791.7 288.25 793.57 284.88 814.96 284.88"/>
    </g>
    <g>
      <path class="st0" d="M687.4,207.8c-176.51,5.08-305.55-49.48-309.25-68.74,11.27-15.94,150.94-10.78,309.25,68.74Z"/>
      <path class="st0" d="M605.95,226.03l-48.67,1.82c-176.51,5.08-305.55-49.48-309.25-68.74,6.46-9.13,55.03-11.34,125.1,3.38,33.49,24,84.22,42.58,163,55.12,21.03,3.34,44.19,6.17,69.82,8.42Z"/>
    </g>
  </g>
</svg>