<?xml version="1.0" encoding="UTF-8"?>
<svg id="Vrstva_1" xmlns="http://www.w3.org/2000/svg" version="1.1" viewBox="0 0 921.26 566.93">
  <!-- Generator: Adobe Illustrator 30.2.1, SVG Export Plug-In . SVG Version: 2.1.1 Build 1)  -->
  <defs>
    <style>
      .st0 {
        fill: #d51c17;
      }

      .st1 {
        fill: #fff;
      }

      .st2 {
        fill: none;
      }

      .st3 {
        fill: #d62224;
      }
    </style>
  </defs>
  <rect class="st2" x="0" y="0" width="921.26" height="566.93"/>
  <g>
    <g>
      <path class="st1" d="M210.38,336.73l-35.42-78.87-1.74-3.89h-18.27l-1.74,3.89-35.42,78.87-4.4,9.82h23.24l1.71-4.04,5.87-14.04h39.74l5.87,14.01,1.71,4.07h23.27l-4.4-9.82ZM151.68,308.04l.93-2.1,10.09-23,1.38-3.11,1.38,3.11,10.09,23,.93,2.1h-24.79Z"/>
      <path class="st1" d="M684.93,336.72l-35.42-78.87-1.74-3.89h-18.27l-1.74,3.89-35.42,78.87-4.4,9.82h23.24l1.71-4.04,5.87-14.04h39.74l5.87,14.01,1.71,4.07h23.27l-4.4-9.82ZM626.24,308.03l.93-2.1,10.09-23,1.38-3.11,1.38,3.11,10.09,23,.93,2.1h-24.79Z"/>
      <rect class="st1" x="226.85" y="253.95" width="20.45" height="92.6"/>
      <path class="st1" d="M346.95,336.97l-10.27-25.48c1.77-.84,3.35-1.8,4.7-2.96,3.2-2.78,5.39-6.41,6.53-10.78.87-3.5,1.35-7.7,1.35-12.37v-2.07c0-5.03-.39-9.16-1.2-12.64-.96-4.37-2.96-7.88-5.9-10.51-2.78-2.52-6.44-4.19-11.26-5.06-4.01-.78-9.07-1.14-15.45-1.14h-47.07v92.59h20.45v-31.89h27.52l11.2,27.76,1.71,4.13h21.59l-3.89-9.58ZM321.83,292.47c-.65.48-1.33.78-2.13.96-2.1.45-4.18.48-5.94.48h-24.94v-19.22h22.9c2.13,0,4.27.12,6.71.36,2.35.21,4.27,1.74,6.03,3.35,1.24,1.14,2.97,2.9,3.74,5.15.59,1.65-2.1,4.94-2.13,4.97-1.24,1.53-2.66,2.87-4.24,3.95Z"/>
      <polygon class="st1" points="488.24 253.95 488.24 275.88 457.9 275.88 457.9 346.55 437.43 346.55 437.43 275.88 407.08 275.88 407.08 253.95 488.24 253.95"/>
      <polygon class="st1" points="578.88 324.62 578.88 346.55 505.3 346.55 505.3 253.95 577.77 253.95 577.77 275.88 525.75 275.88 525.75 288.45 575.6 288.45 575.6 310.4 525.75 310.4 525.75 324.62 578.88 324.62"/>
      <polygon class="st1" points="807.87 253.95 807.87 346.55 787.42 346.55 787.42 294.65 763.13 338.02 761.26 341.36 747.12 341.36 745.23 338.09 719.98 294.1 719.98 346.55 699.51 346.55 699.51 253.95 720.88 253.95 722.77 257.24 753.93 311.89 784.61 257.29 786.48 253.95 807.87 253.95"/>
    </g>
    <g>
      <path class="st0" d="M697.91,189.88c-190.8,5.59-330.28-53.94-334.29-74.96h-.01c12.18-17.4,163.14-11.8,334.28,74.95h.02Z"/>
      <path class="st0" d="M609.88,205.92c-7.14.33-45.6,1.91-54.39,2.05-.02,0-.06,0-.12,0-189.62,5.05-328.01-54.08-332-75.02h-.01c6.97-9.95,59.27-12.37,134.78,3.57.89.78,1.83,1.56,2.83,2.35.2.17.41.32.62.48.42.33.85.65,1.28.97.22.17.43.32.66.48.22.17.45.33.68.49.45.33.92.65,1.38.97,1.41.98,2.91,1.95,4.5,2.93.27.17.53.34.8.5.54.33,1.08.66,1.64.98.57.34,1.15.68,1.74,1.02.85.49,1.71.98,2.6,1.46.3.17.61.34.92.5.62.34,1.24.67,1.87,1,.31.17.64.34.96.51.76.39,1.52.79,2.29,1.18,1.94.98,3.94,1.97,5.99,2.94,3.71,1.77,7.63,3.52,11.73,5.25,3.97,1.69,8.13,3.35,12.44,5,1.43.55,2.89,1.09,4.36,1.63h0c1.8.67,3.62,1.33,5.45,1.98,1.23.44,2.47.87,3.71,1.3,2.57.89,5.2,1.77,7.85,2.64h0c4.43,1.46,8.98,2.88,13.63,4.27.46.14.92.27,1.38.4.46.14.92.28,1.38.41,2.01.6,4.03,1.18,6.07,1.75.92.27,1.85.53,2.79.78.98.28,1.96.55,2.95.81.99.27,1.97.54,2.96.8,1.98.54,3.97,1.06,5.97,1.56,2,.52,4.01,1.03,6.03,1.52,3.03.76,6.08,1.49,9.15,2.2,2.05.49,4.11.95,6.17,1.41,3.05.69,6.12,1.35,9.21,2,.19.04.38.08.57.11,1.71.36,3.43.72,5.16,1.06.55.12,1.11.23,1.68.34,1.58.32,3.17.63,4.76.93.41.09.81.17,1.22.24,1.41.27,2.83.54,4.24.79.82.16,1.64.31,2.45.45,1.38.26,2.78.5,4.17.75,2.64.47,5.29.92,7.95,1.36.06,0,.22.04.45.07.08.01.18.03.28.04l.27.04c4.01.67,8.06,1.3,12.13,1.9,20.51,3.04,41.36,5.33,62.39,6.85Z"/>
    </g>
  </g>
  <g>
    <g>
      <path class="st3" d="M197.26,393.32v35.98c0,5.78-1.16,9.87-3.53,12.51-2.48,2.78-6.53,4.2-12.01,4.2h-10.79c-3.75,0-6.66-.71-8.93-2.16-2.55-1.63-4.13-4.58-4.67-8.76-.28-2.03-.41-4.63-.41-7.71v-5.14h11.05v5.14c0,5.76.75,7.11.84,7.24.39.17,1.05.28,2.12.28h10.79c2.51,0,3.36-.6,3.62-.86.09-.11.88-1.03.88-4.73v-35.98h11.05Z"/>
      <polygon class="st3" points="254.54 434.76 254.54 446 211.12 446 211.12 393.32 253.86 393.32 253.86 404.56 222.17 404.56 222.17 413.56 252.55 413.56 252.55 424.8 222.17 424.8 222.17 434.76 254.54 434.76"/>
      <polygon class="st3" points="311.33 393.32 311.33 404.56 292.83 404.56 292.83 446 281.78 446 281.78 404.56 263.28 404.56 263.28 393.32 311.33 393.32"/>
      <path class="st3" d="M398.83,427.16c0,4.05-.36,7.22-1.07,9.74-.81,2.85-2.18,5.08-4.11,6.62-1.82,1.46-4.18,2.42-6.98,2.87-2.44.39-5.44.58-8.89.58h-9.7c-3.92,0-7.11-.32-9.74-1.03-3-.77-5.4-2.29-7.15-4.48-1.67-2.1-2.78-4.9-3.4-8.59-.54-3.25-.81-7.49-.81-12.61v-1.2c0-4.2.17-7.79.49-10.69.36-3.13,1.01-5.67,1.93-7.73,1.03-2.29,2.48-4.09,4.35-5.35,1.73-1.18,3.9-1.99,6.4-2.4,2.23-.34,4.88-.54,7.94-.54h9.7c3.53,0,6.45.21,8.93.64,2.81.49,5.16,1.5,6.98,3.02,1.91,1.56,3.28,3.81,4.07,6.68.71,2.55,1.07,5.74,1.07,9.76h-11.05c0-2.61-.19-4.63-.54-5.97-.21-.86-.54-1.48-.9-1.73-.34-.26-1.05-.6-2.44-.73-1.61-.17-3.66-.24-6.12-.24h-9.7c-2.18,0-4,.06-5.46.24-1.07.11-1.93.36-2.51.71-.39.24-.71.69-.96,1.35-.28.71-.66,2.08-.86,4.52-.19,2.18-.28,5.03-.28,8.46v1.2c0,3.32.09,6.08.28,8.22.17,1.93.45,3.45.86,4.5.28.73.64,1.22,1.07,1.52.56.36,1.39.64,2.44.77,1.43.17,3.25.28,5.42.28h9.7c2.51,0,4.58-.06,6.17-.19,1.41-.13,2.12-.45,2.46-.69.34-.21.64-.79.84-1.58.24-.92.54-2.68.54-5.93h11.05Z"/>
      <path class="st3" d="M592.13,427.16c0,4.05-.36,7.22-1.07,9.74-.81,2.85-2.18,5.08-4.11,6.62-1.82,1.46-4.18,2.42-6.98,2.87-2.44.39-5.44.58-8.89.58h-9.7c-3.92,0-7.11-.32-9.74-1.03-3-.77-5.4-2.29-7.15-4.48-1.67-2.1-2.78-4.9-3.4-8.59-.54-3.25-.81-7.49-.81-12.61v-1.2c0-4.2.17-7.79.49-10.69.36-3.13,1.01-5.67,1.93-7.73,1.03-2.29,2.48-4.09,4.35-5.35,1.73-1.18,3.9-1.99,6.4-2.4,2.23-.34,4.88-.54,7.94-.54h9.7c3.53,0,6.45.21,8.93.64,2.81.49,5.16,1.5,6.98,3.02,1.91,1.56,3.28,3.81,4.07,6.68.71,2.55,1.07,5.74,1.07,9.76h-11.05c0-2.61-.19-4.63-.54-5.97-.21-.86-.54-1.48-.9-1.73-.34-.26-1.05-.6-2.44-.73-1.61-.17-3.66-.24-6.12-.24h-9.7c-2.18,0-4,.06-5.46.24-1.07.11-1.93.36-2.51.71-.39.24-.71.69-.96,1.35-.28.71-.66,2.08-.86,4.52-.19,2.18-.28,5.03-.28,8.46v1.2c0,3.32.09,6.08.28,8.22.17,1.93.45,3.45.86,4.5.28.73.64,1.22,1.07,1.52.56.36,1.39.64,2.44.77,1.43.17,3.25.28,5.42.28h9.7c2.51,0,4.58-.06,6.17-.19,1.41-.13,2.12-.45,2.46-.69.34-.21.64-.79.84-1.58.24-.92.54-2.68.54-5.93h11.05Z"/>
      <path class="st3" d="M461.42,408.38c-.36-3.13-1.01-5.67-1.93-7.73-1.03-2.29-2.51-4.09-4.35-5.35-1.73-1.18-3.9-1.99-6.4-2.4-2.23-.34-4.88-.54-7.94-.54h-9.7c-3.04,0-5.72.19-7.94.54-2.51.41-4.67,1.22-6.4,2.4-1.86,1.26-3.32,3.06-4.35,5.35-.92,2.06-1.56,4.6-1.93,7.73-.32,2.89-.49,6.49-.49,10.69v1.2c0,5.12.28,9.36.84,12.61.62,3.68,1.71,6.49,3.38,8.59,1.76,2.18,4.15,3.7,7.17,4.48,2.61.71,5.8,1.03,9.72,1.03h9.7c3.92,0,7.11-.32,9.74-1.03,3-.77,5.4-2.29,7.15-4.48,1.67-2.1,2.76-4.9,3.38-8.59.56-3.25.84-7.49.84-12.61v-1.2c0-4.2-.17-7.77-.49-10.69ZM450.87,420.26c0,3.32-.09,6.08-.28,8.22-.17,1.93-.45,3.45-.86,4.52-.28.71-.64,1.2-1.07,1.5-.56.36-1.39.64-2.46.77-1.43.17-3.23.28-5.4.28h-9.7c-2.16,0-3.96-.11-5.42-.28-1.05-.13-1.88-.41-2.44-.77-.43-.3-.79-.79-1.07-1.52-.41-1.05-.69-2.57-.86-4.5-.19-2.14-.28-4.9-.28-8.22v-1.2c0-3.43.09-6.27.28-8.46.21-2.44.58-3.81.86-4.52.26-.66.58-1.11.96-1.35.58-.34,1.43-.6,2.51-.71,1.46-.17,3.28-.24,5.46-.24h9.7c2.16,0,4,.06,5.46.24,1.07.11,1.93.36,2.51.71.39.24.71.69.96,1.35.28.71.64,2.08.86,4.52.19,2.18.28,5.03.28,8.46v1.2Z"/>
      <g>
        <path class="st3" d="M520.31,438.87l.69.71h.21v-.71h-.9ZM481.21,399.75h-.24v.39h.6l-.36-.39Z"/>
        <path class="st3" d="M516.58,393.32v34.35l-32.63-34.35h-9.4v52.68h11.05v-34.6l32.61,34.6h9.42v-52.68h-11.05ZM480.97,400.13v-.39h.24l.36.39h-.6ZM521.21,439.58h-.21l-.69-.71h.9v.71Z"/>
      </g>
      <polygon class="st3" points="648.26 434.76 648.26 446 604.83 446 604.83 393.32 647.59 393.32 647.59 404.56 615.88 404.56 615.88 413.56 646.27 413.56 646.27 424.8 615.88 424.8 615.88 434.76 648.26 434.76"/>
      <path class="st3" d="M706.63,402.89c-.56-2.42-1.67-4.37-3.3-5.87-1.58-1.43-3.73-2.4-6.55-2.98-2.42-.49-5.5-.73-9.36-.73h-27.99v52.68h11.05v-17.82h16.79c3.9,0,6.98-.28,9.44-.81,2.76-.62,4.97-1.65,6.55-3.11,1.65-1.5,2.78-3.45,3.34-5.82.47-2.01.71-4.33.71-7.09v-1.2c0-2.83-.24-5.27-.69-7.26ZM696.27,411.35c0,1.52-.13,2.72-.34,3.6-.13.49-.3.66-.47.79-.21.13-.84.47-2.46.71-1.56.19-3.75.3-6.47.3h-16.04v-11.99h16.04c2.74,0,4.95.09,6.55.26,1.65.19,2.29.54,2.44.64.09.06.28.17.41.71.15.6.34,1.76.34,3.79v1.2Z"/>
      <polygon class="st3" points="764.34 393.32 764.34 404.56 745.86 404.56 745.86 446 734.81 446 734.81 404.56 716.31 404.56 716.31 393.32 764.34 393.32"/>
    </g>
    <polyline class="st2" points="398.83 427.16 395.62 427.16 390.99 427.16 387.78 427.16"/>
  </g>
</svg>