<?xml version="1.0" encoding="UTF-8"?>
<svg xmlns="http://www.w3.org/2000/svg" viewBox="100 110 720 245">
  <defs>
    <style>
      .st0 { fill: #d51c17; }
      .st1 { fill: #fff; }
    </style>
  </defs>
  <!-- AIR TEAM text -->
  <g>
    <path class="st1" d="M210.38,336.73l-35.42-78.87-1.74-3.89h-18.27l-1.74,3.89-35.42,78.87-4.4,9.82h23.24l1.71-4.04,5.87-14.04h39.74l5.87,14.01,1.71,4.07h23.27l-4.4-9.82ZM151.68,308.04l.93-2.1,10.09-23,1.38-3.11,1.38,3.11,10.09,23,.93,2.1h-24.79Z"/>
    <path class="st1" d="M684.93,336.72l-35.42-78.87-1.74-3.89h-18.27l-1.74,3.89-35.42,78.87-4.4,9.82h23.24l1.71-4.04,5.87-14.04h39.74l5.87,14.01,1.71,4.07h23.27l-4.4-9.82ZM626.24,308.03l.93-2.1,10.09-23,1.38-3.11,1.38,3.11,10.09,23,.93,2.1h-24.79Z"/>
    <rect class="st1" x="226.85" y="253.95" width="20.45" height="92.6"/>
    <path class="st1" d="M346.95,336.97l-10.27-25.48c1.77-.84,3.35-1.8,4.7-2.96,3.2-2.78,5.39-6.41,6.53-10.78.87-3.5,1.35-7.7,1.35-12.37v-2.07c0-5.03-.39-9.16-1.2-12.64-.96-4.37-2.96-7.88-5.9-10.51-2.78-2.52-6.44-4.19-11.26-5.06-4.01-.78-9.07-1.14-15.45-1.14h-47.07v92.59h20.45v-31.89h27.52l11.2,27.76,1.71,4.13h21.59l-3.89-9.58ZM321.83,292.47c-.65.48-1.33.78-2.13.96-2.1.45-4.18.48-5.94.48h-24.94v-19.22h22.9c2.13,0,4.27.12,6.71.36,2.35.21,4.27,1.74,6.03,3.35,1.24,1.14,2.97,2.9,3.74,5.15.59,1.65-2.1,4.94-2.13,4.97-1.24,1.53-2.66,2.87-4.24,3.95Z"/>
    <polygon class="st1" points="488.24 253.95 488.24 275.88 457.9 275.88 457.9 346.55 437.43 346.55 437.43 275.88 407.08 275.88 407.08 253.95 488.24 253.95"/>
    <polygon class="st1" points="578.88 324.62 578.88 346.55 505.3 346.55 505.3 253.95 577.77 253.95 577.77 275.88 525.75 275.88 525.75 288.45 575.6 288.45 575.6 310.4 525.75 310.4 525.75 324.62 578.88 324.62"/>
    <polygon class="st1" points="807.87 253.95 807.87 346.55 787.42 346.55 787.42 294.65 763.13 338.02 761.26 341.36 747.12 341.36 745.23 338.09 719.98 294.1 719.98 346.55 699.51 346.55 699.51 253.95 720.88 253.95 722.77 257.24 753.93 311.89 784.61 257.29 786.48 253.95 807.87 253.95"/>
  </g>
  <!-- Wings / arrow graphic -->
  <g>
    <path class="st0" d="M697.91,189.88c-190.8,5.59-330.28-53.94-334.29-74.96h-.01c12.18-17.4,163.14-11.8,334.28,74.95h.02Z"/>
    <path class="st0" d="M609.88,205.92c-7.14.33-45.6,1.91-54.39,2.05-.02,0-.06,0-.12,0-189.62,5.05-328.01-54.08-332-75.02h-.01c6.97-9.95,59.27-12.37,134.78,3.57.89.78,1.83,1.56,2.83,2.35.2.17.41.32.62.48.42.33.85.65,1.28.97.22.17.43.32.66.48.22.17.45.33.68.49.45.33.92.65,1.38.97,1.41.98,2.91,1.95,4.5,2.93.27.17.53.34.8.5.54.33,1.08.66,1.64.98.57.34,1.15.68,1.74,1.02.85.49,1.71.98,2.6,1.46.3.17.61.34.92.5.62.34,1.24.67,1.87,1,.31.17.64.34.96.51.76.39,1.52.79,2.29,1.18,1.94.98,3.94,1.97,5.99,2.94,3.71,1.77,7.63,3.52,11.73,5.25,3.97,1.69,8.13,3.35,12.44,5,1.43.55,2.89,1.09,4.36,1.63h0c1.8.67,3.62,1.33,5.45,1.98,1.23.44,2.47.87,3.71,1.3,2.57.89,5.2,1.77,7.85,2.64h0c4.43,1.46,8.98,2.88,13.63,4.27.46.14.92.27,1.38.4.46.14.92.28,1.38.41,2.01.6,4.03,1.18,6.07,1.75.92.27,1.85.53,2.79.78.98.28,1.96.55,2.95.81.99.27,1.97.54,2.96.8,1.98.54,3.97,1.06,5.97,1.56,2,.52,4.01,1.03,6.03,1.52,3.03.76,6.08,1.49,9.15,2.2,2.05.49,4.11.95,6.17,1.41,3.05.69,6.12,1.35,9.21,2,.19.04.38.08.57.11,1.71.36,3.43.72,5.16,1.06.55.12,1.11.23,1.68.34,1.58.32,3.17.63,4.76.93.41.09.81.17,1.22.24,1.41.27,2.83.54,4.24.79.82.16,1.64.31,2.45.45,1.38.26,2.78.5,4.17.75,2.64.47,5.29.92,7.95,1.36.06,0,.22.04.45.07.08.01.18.03.28.04l.27.04c4.01.67,8.06,1.3,12.13,1.9,20.51,3.04,41.36,5.33,62.39,6.85Z"/>
  </g>
</svg>
