<?xml version="1.0" encoding="UTF-8"?>
<svg xmlns="http://www.w3.org/2000/svg" width="84.183" height="30" viewBox="0 0 84.183 30"><g class="EllipseLogoSVG" data-name="Group 143" transform="translate(-620.825 -435.358)"><path class="Path_192" data-name="Path 192" d="M763.327,435.358a1.1,1.1,0,0,0-.829.353,1.171,1.171,0,0,0-.33.831V456a1.145,1.145,0,0,0,1.159,1.159,1.168,1.168,0,0,0,.831-.33,1.1,1.1,0,0,0,.354-.829V436.542a1.188,1.188,0,0,0-1.184-1.184" transform="translate(-123.803)" fill="#212121"/><path class="Path_193" data-name="Path 193" d="M818.661,435.358a1.1,1.1,0,0,0-.829.353,1.17,1.17,0,0,0-.33.831V456a1.144,1.144,0,0,0,1.159,1.159,1.168,1.168,0,0,0,.831-.33,1.1,1.1,0,0,0,.354-.829V436.542a1.188,1.188,0,0,0-1.184-1.184" transform="translate(-172.269)" fill="#212121"/><path class="Path_194" data-name="Path 194" d="M872.795,502.157h0a1.176,1.176,0,0,0-.811-.3,1.142,1.142,0,0,0-.786.3,1,1,0,0,0-.346.76v11.349a1.084,1.084,0,0,0,.34.818,1.114,1.114,0,0,0,.792.318,1.148,1.148,0,0,0,.818-.318,1.087,1.087,0,0,0,.34-.818V502.917a1,1,0,0,0-.346-.76" transform="translate(-218.997 -58.247)" fill="#212121"/><path class="Path_195" data-name="Path 195" d="M935.557,504.539a7.136,7.136,0,0,0-2.053-1.446,6.488,6.488,0,0,0-2.51-.611h-5.974a1.144,1.144,0,0,0-1.158,1.159s0,.008,0,.012v19.341a1.144,1.144,0,0,0,1.159,1.159,1.169,1.169,0,0,0,.831-.33,1.1,1.1,0,0,0,.353-.829v-7.044h4.027a8.815,8.815,0,0,0,3.871-.89l.013-.007a6.877,6.877,0,0,0,2.448-2.476,6.723,6.723,0,0,0,.881-3.4,6.572,6.572,0,0,0-1.886-4.638m-5.042,9.067H926.2V504.8H930.7a4.464,4.464,0,0,1,1.732.339,4.232,4.232,0,0,1,1.4.941,4.706,4.706,0,0,1,.948,1.41,4.227,4.227,0,0,1,.349,1.714,1.508,1.508,0,0,1-.01.194v0a1.965,1.965,0,0,0-.015.244v.06a4.2,4.2,0,0,1-.5,1.564,4.514,4.514,0,0,1-1.03,1.261,4.74,4.74,0,0,1-1.4.814,4.336,4.336,0,0,1-1.652.265" transform="translate(-265.429 -58.794)" fill="#212121"/><path class="Path_196" data-name="Path 196" d="M1069.153,509.188h0a3.87,3.87,0,0,0-1.271-.862,3.96,3.96,0,0,0-1.55-.311h-5.66a1.564,1.564,0,0,1-1.13-.45,1.594,1.594,0,0,1-.518-1.087,1.515,1.515,0,0,1,.46-1.213,1.657,1.657,0,0,1,1.241-.52h8.353a1.15,1.15,0,0,0,1.164-1.164,1.088,1.088,0,0,0-.343-.82,1.157,1.157,0,0,0-.822-.318h-8.406a3.958,3.958,0,0,0-1.55.311,3.855,3.855,0,0,0-1.271.862,3.977,3.977,0,0,0-.832,1.268,4.085,4.085,0,0,0-.3,1.561,3.575,3.575,0,0,0,.327,1.507,4.1,4.1,0,0,0,.871,1.237,3.975,3.975,0,0,0,2.8,1.128h5.607a1.567,1.567,0,0,1,1.13.449,1.6,1.6,0,0,1,.519,1.087,1.55,1.55,0,0,1-.461,1.24,1.656,1.656,0,0,1-1.241.52h-8.392a1.156,1.156,0,0,0-.822.318,1.085,1.085,0,0,0-.342.82,1.149,1.149,0,0,0,1.164,1.164h8.392a3.977,3.977,0,0,0,2.8-1.128,4.138,4.138,0,0,0,.871-1.237,3.649,3.649,0,0,0,.327-1.533,4.111,4.111,0,0,0-.3-1.546,3.952,3.952,0,0,0-.833-1.283" transform="translate(-381.803 -58.76)" fill="#212121"/><path class="Path_197" data-name="Path 197" d="M633.248,513.632h-5.677a4.467,4.467,0,0,1-1.732-.339,4.229,4.229,0,0,1-1.4-.941,4.7,4.7,0,0,1-.948-1.41,4.23,4.23,0,0,1-.349-1.714,1.551,1.551,0,0,1,.01-.2,2.009,2.009,0,0,0,.015-.244v-.06a4.2,4.2,0,0,1,.5-1.564,4.512,4.512,0,0,1,1.03-1.261,4.74,4.74,0,0,1,1.4-.814,4.328,4.328,0,0,1,1.652-.265h5.433a1.1,1.1,0,0,0,.829-.354,1.17,1.17,0,0,0,.33-.831,1.144,1.144,0,0,0-1.158-1.158h-5.148a8.813,8.813,0,0,0-3.87.89l-.012.007a6.875,6.875,0,0,0-2.448,2.476,6.721,6.721,0,0,0-.881,3.4,6.573,6.573,0,0,0,1.886,4.638,7.141,7.141,0,0,0,2.053,1.446,6.486,6.486,0,0,0,2.51.611h5.974a1.159,1.159,0,1,0,0-2.317" transform="translate(0 -58.794)" fill="#212121"/><path class="Path_198" data-name="Path 198" d="M667.977,544.354c-2.276,0-4.121.688-4.121,1.537s1.845,1.537,4.121,1.537,4.121-.688,4.121-1.537-1.845-1.537-4.121-1.537" transform="translate(-37.691 -95.47)" fill="#212121"/><path class="Path_199" data-name="Path 199" d="M1202.153,513.632h-5.677a4.468,4.468,0,0,1-1.732-.339,4.23,4.23,0,0,1-1.4-.941,4.693,4.693,0,0,1-.948-1.41,4.228,4.228,0,0,1-.349-1.714,1.526,1.526,0,0,1,.011-.2,2.072,2.072,0,0,0,.015-.244v-.06a4.2,4.2,0,0,1,.5-1.564,4.5,4.5,0,0,1,1.03-1.261,4.733,4.733,0,0,1,1.4-.814,4.327,4.327,0,0,1,1.652-.265h5.432a1.106,1.106,0,0,0,.829-.354,1.171,1.171,0,0,0,.329-.831,1.144,1.144,0,0,0-1.159-1.158h-5.148a8.809,8.809,0,0,0-3.87.89l-.013.007a6.876,6.876,0,0,0-2.448,2.476,6.719,6.719,0,0,0-.881,3.4,6.573,6.573,0,0,0,1.885,4.638,7.144,7.144,0,0,0,2.054,1.446,6.484,6.484,0,0,0,2.51.611h5.974a1.159,1.159,0,1,0,0-2.317" transform="translate(-498.304 -58.794)" fill="#212121"/><path class="Path_200" data-name="Path 200" d="M1236.881,544.354c-2.276,0-4.121.688-4.121,1.537s1.845,1.537,4.121,1.537,4.121-.688,4.121-1.537-1.845-1.537-4.121-1.537" transform="translate(-535.994 -95.47)" fill="#212121"/><path class="Path_201" data-name="Path 201" d="M871.327,459.126a1.445,1.445,0,1,1-1.445-1.445,1.445,1.445,0,0,1,1.445,1.445" transform="translate(-216.883 -19.553)" fill="#212121"/></g></svg>
