<svg xmlns="http://www.w3.org/2000/svg" width="484" height="60" fill="none"><g clip-path="url(#a)"><mask id="b" width="484" height="61" x="0" y="-1" maskUnits="userSpaceOnUse" style="mask-type:luminance"><path fill="#fff" d="M484-.003H0v60h484v-60Z"/></mask><g fill="#fff" mask="url(#b)"><path d="M76.567 12.395 54.033 48.104h20.35l12.939-20.542 15.611 20.541h20.349L96.15 12.395H76.543h.024Zm-13.706 0H0v9.459h21.21v26.273h20.418V21.853h21.21v-9.458h.023ZM300.622 30.26c0 13.448 11.01 17.866 29.013 17.866h26.6V29.21H338.44v9.483h-9.013c-5.739 0-9.711-1.816-9.711-8.408s3.996-8.408 9.711-8.408h26.784V12.42h-26.598c-18.003 0-29.016 4.418-29.016 17.866m91.806-18.559c-18.004 0-30.548 4.92-30.548 18.535s12.544 18.535 30.548 18.535c18.005 0 30.549-4.92 30.549-18.535 0-13.614-12.544-18.535-30.549-18.535Zm0 28.854c-7.479 0-12.684-3.058-12.684-10.319 0-7.261 5.205-10.318 12.684-10.318 7.481 0 12.707 3.057 12.707 10.318 0 7.261-5.226 10.319-12.707 10.319Zm75.546-28.185v21.09l-17.703-21.09h-22.045v35.709h16.076V27.012l17.7 21.09h22.045V12.395h-16.073Zm-211.86 0-7.852 12.42 11.22 14.499 7.41-11.752 15.612 20.541h20.372l-27.132-35.708h-19.63ZM240.78 27.634c.535-1.911.814-3.965.814-6.186 0-13.448-9.897-21.473-26.459-21.473h-48.9l45.578 60h53.545L240.78 27.634Zm-19.744 20.47L206.47 28.948h6.063c5.552 0 8.989-2.15 8.989-7.094 0-4.945-3.437-7.094-8.989-7.094h-18.886v14.57L174.528 4.178h40.583c11.569 0 22.418 4.276 22.418 17.293 0 6.808-2.928 11.203-8.155 13.878l9.711 12.755h-18.049ZM155.201-.002H97.915l45.555 60h57.285l-45.554-60Zm-14.17 28.95h6.063c5.552 0 8.99-2.15 8.99-7.094 0-4.945-3.438-7.094-8.99-7.094h-18.863v18.344l-21.999-28.95h46.994l17.841 23.48c-1.278 3.44-3.694 5.947-7.155 7.715l9.71 12.755h-18.026l-14.565-19.156Z"/></g></g><defs><clipPath id="a"><path fill="#fff" d="M0 0h484v60H0z"/></clipPath></defs></svg>